<svg version="1.1" id="Layer_1" xmlns="http://www.w3.org/2000/svg" xmlns:xlink="http://www.w3.org/1999/xlink" x="0px" y="0px"
	 width="100%" viewBox="0 0 926 814" enable-background="new 0 0 926 814" xml:space="preserve">
<path fill="#1E3360" opacity="1.000000" stroke="none" 
	d="
M564.000000,815.000000 
	C376.000000,815.000000 188.500000,815.000000 1.000000,815.000000 
	C1.000000,543.666687 1.000000,272.333344 1.000000,1.000000 
	C309.666656,1.000000 618.333313,1.000000 927.000000,1.000000 
	C927.000000,272.333344 927.000000,543.666687 927.000000,815.000000 
	C806.166687,815.000000 685.333313,815.000000 564.000000,815.000000 
M635.185791,446.673859 
	C634.908325,445.718018 634.663452,444.751312 634.348816,443.807892 
	C602.395874,348.013733 570.445068,252.218857 538.475830,156.430115 
	C527.434937,123.348518 516.378540,90.271942 505.189423,57.240417 
	C504.632477,55.596302 502.750488,53.195484 501.464783,53.182404 
	C477.482941,52.938309 453.497894,53.003162 429.097412,53.003162 
	C429.693817,54.927982 430.147675,56.491779 430.661530,58.035614 
	C435.288361,71.937065 439.920624,85.836716 444.560822,99.733719 
	C477.652496,198.840225 510.722076,297.954132 543.929810,397.021729 
	C545.242310,400.937073 544.677612,403.285095 541.619080,406.015015 
	C531.054749,415.444275 520.795776,425.214691 510.338959,434.765869 
	C504.949463,439.688599 499.387695,444.422729 493.565155,448.564026 
	C449.560547,316.789398 405.555908,185.014740 361.544373,53.219364 
	C335.753693,53.219364 309.982483,53.219364 284.396667,53.219364 
	C210.537964,274.513519 136.763931,495.554047 62.928833,716.777527 
	C64.021439,716.878296 64.674026,716.990967 65.326637,716.991211 
	C96.654388,717.000549 127.982491,717.059082 159.309097,716.871033 
	C161.444489,716.858215 163.984497,715.438782 165.638428,713.915771 
	C243.594116,642.129211 321.471313,570.257507 399.360992,498.399353 
	C409.625641,488.929535 419.908844,479.479767 430.822174,469.432739 
	C434.050415,480.089630 437.063293,490.035553 439.429413,500.196960 
	C361.389404,572.185791 283.349396,644.174622 204.993866,716.454468 
	C206.093369,716.801147 206.387589,716.975037 206.681900,716.975220 
	C237.676575,716.991943 268.671387,717.033325 299.665466,716.899902 
	C301.396820,716.892395 303.474426,715.818604 304.799225,714.598694 
	C357.625641,665.953796 410.383545,617.234680 463.707733,569.039795 
	C466.822113,578.688721 469.936493,588.337585 472.433807,598.262268 
	C457.202148,612.102295 441.889008,625.854065 426.761292,639.806763 
	C411.010315,654.334412 395.472290,669.092773 379.769745,683.673340 
	C374.180817,688.862915 368.314545,693.752991 362.697876,698.913513 
	C356.540375,704.571045 350.524872,710.383057 344.220764,716.342102 
	C345.217468,716.752258 345.500793,716.970825 345.784241,716.971008 
	C376.764893,716.990845 407.745667,717.025024 438.725891,716.911255 
	C440.336548,716.905334 442.281433,715.999084 443.497528,714.885925 
	C453.788239,705.465027 463.879578,695.826294 474.165436,686.400024 
	C481.375183,679.792847 488.795593,673.415710 496.624695,667.454041 
	C502.130829,683.957947 507.636963,700.461792 513.051270,716.690552 
	C536.604370,716.690552 559.634949,716.690552 583.003540,716.690552 
	C577.411865,699.938110 571.903320,683.581421 566.495178,667.191589 
	C560.876770,650.164429 555.355652,633.105164 550.441833,615.802185 
	C554.633667,612.032227 558.865723,608.306030 563.009094,604.483582 
	C572.399536,595.820496 581.670654,587.026245 591.153625,578.466187 
	C594.297424,575.628357 597.940369,573.343506 601.847412,571.322388 
	C602.245361,572.414978 602.669373,573.498840 603.037537,574.601379 
	C618.354675,620.463318 633.735535,666.304382 648.858948,712.230103 
	C650.177979,716.235596 651.972717,717.244446 655.872375,717.089844 
	C663.520081,716.786499 671.188293,717.000549 678.848022,717.000549 
	C694.152100,717.000549 709.456177,717.000610 725.344116,717.000610 
	C724.713928,714.828003 724.276428,713.096863 723.712524,711.407898 
	C707.609863,663.175110 691.463745,614.956787 675.397949,566.711731 
	C669.783569,549.851990 664.361877,532.928101 659.481445,515.761475 
	C675.269531,501.156250 691.057678,486.551056 707.369934,471.460938 
	C708.439331,474.291718 709.257568,476.251709 709.927673,478.261078 
	C735.951782,556.301453 761.979736,634.340576 787.913696,712.410889 
	C788.999146,715.678528 790.277283,717.146301 794.080811,717.107361 
	C815.739624,716.885986 837.401794,717.007690 859.062866,716.983765 
	C860.614807,716.982056 862.166565,716.749756 864.213989,716.584656 
	C863.467102,714.184998 862.963989,712.460938 862.395752,710.758667 
	C807.201782,545.405579 751.998047,380.055817 696.807129,214.701721 
	C679.445374,162.685287 662.067993,110.673866 644.863892,58.605286 
	C643.416626,54.225262 641.393433,52.808613 636.733093,52.873215 
	C615.742554,53.164188 594.745728,53.000175 573.751160,53.000183 
	C572.015747,53.000183 570.280273,53.000183 567.968994,53.000183 
	C568.744629,55.434166 569.215698,56.994987 569.737915,58.538528 
	C575.487427,75.534721 581.301941,92.509171 586.988281,109.526451 
	C598.413208,143.717316 609.754822,177.936020 621.157288,212.134399 
	C641.761047,273.928772 662.360718,335.724487 683.064148,397.485443 
	C684.171814,400.789764 683.803894,403.007294 681.196411,405.388550 
	C670.890564,414.800537 660.774292,424.419739 650.528137,433.897797 
	C645.657654,438.403076 640.653381,442.763641 635.185791,446.673859 
z"/>
<path fill="#223E61" opacity="1.000000" stroke="none" 
	d="
M549.791992,616.059937 
	C555.355652,633.105164 560.876770,650.164429 566.495178,667.191589 
	C571.903320,683.581421 577.411865,699.938110 583.003540,716.690552 
	C559.634949,716.690552 536.604370,716.690552 513.051270,716.690552 
	C507.636963,700.461792 502.130829,683.957947 496.360657,666.807983 
	C494.709045,661.911438 493.364410,657.646301 491.926453,653.412842 
	C485.649353,634.932373 479.345184,616.461121 473.050842,597.986511 
	C469.936493,588.337585 466.822113,578.688721 463.421570,568.410889 
	C456.531677,547.746704 449.951447,527.703674 443.295807,507.685699 
	C442.420135,505.051941 441.158875,502.546387 440.076172,499.981476 
	C437.063293,490.035553 434.050415,480.089630 430.822174,469.432739 
	C419.908844,479.479767 409.625641,488.929535 399.360992,498.399353 
	C321.471313,570.257507 243.594116,642.129211 165.638428,713.915771 
	C163.984497,715.438782 161.444489,716.858215 159.309097,716.871033 
	C127.982491,717.059082 96.654388,717.000549 65.326637,716.991211 
	C64.674026,716.990967 64.021439,716.878296 62.928833,716.777527 
	C136.763931,495.554047 210.537964,274.513519 284.396667,53.219364 
	C309.982483,53.219364 335.753693,53.219364 361.544373,53.219364 
	C405.555908,185.014740 449.560547,316.789398 493.771423,449.265747 
	C494.964203,452.783752 495.975739,455.591583 496.933258,458.417755 
	C503.690613,478.362640 510.436859,498.311279 517.179688,518.618042 
	C520.405151,528.462524 523.637573,537.947754 526.862793,547.799744 
	C527.925354,551.485107 528.950806,554.818665 530.071960,558.119690 
	C536.632935,577.437317 543.216187,596.747375 549.791992,616.059937 
M350.885223,230.695236 
	C341.748169,203.409790 332.611115,176.124359 323.474060,148.838913 
	C323.130463,148.847946 322.786865,148.856995 322.443268,148.866043 
	C269.551636,307.333588 216.660034,465.801147 163.378006,625.438416 
	C165.227158,623.945801 166.112823,623.311340 166.907486,622.578186 
	C246.150955,549.469604 325.379456,476.344788 404.667633,403.284821 
	C406.826752,401.295319 407.292084,399.687866 406.337799,396.846497 
	C387.832550,341.746826 369.449554,286.606079 350.885223,230.695236 
z"/>
<path fill="#747474" opacity="1.000000" stroke="none" 
	d="
M517.186646,518.258728 
	C510.436859,498.311279 503.690613,478.362640 496.933258,458.417755 
	C495.975739,455.591583 494.964203,452.783752 493.940735,449.604767 
	C499.387695,444.422729 504.949463,439.688599 510.338959,434.765869 
	C520.795776,425.214691 531.054749,415.444275 541.619080,406.015015 
	C544.677612,403.285095 545.242310,400.937073 543.929810,397.021729 
	C510.722076,297.954132 477.652496,198.840225 444.560822,99.733719 
	C439.920624,85.836716 435.288361,71.937065 430.661530,58.035614 
	C430.147675,56.491779 429.693817,54.927982 429.097412,53.003162 
	C453.497894,53.003162 477.482941,52.938309 501.464783,53.182404 
	C502.750488,53.195484 504.632477,55.596302 505.189423,57.240417 
	C516.378540,90.271942 527.434937,123.348518 538.475830,156.430115 
	C570.445068,252.218857 602.395874,348.013733 634.348816,443.807892 
	C634.663452,444.751312 634.908325,445.718018 635.517578,447.305542 
	C637.234924,452.181915 638.578613,456.440857 640.013550,460.668884 
	C646.278625,479.128662 652.570190,497.579468 658.852173,516.033508 
	C664.361877,532.928101 669.783569,549.851990 675.397949,566.711731 
	C691.463745,614.956787 707.609863,663.175110 723.712524,711.407898 
	C724.276428,713.096863 724.713928,714.828003 725.344116,717.000610 
	C709.456177,717.000610 694.152100,717.000549 678.848022,717.000549 
	C671.188293,717.000549 663.520081,716.786499 655.872375,717.089844 
	C651.972717,717.244446 650.177979,716.235596 648.858948,712.230103 
	C633.735535,666.304382 618.354675,620.463318 603.037537,574.601379 
	C602.669373,573.498840 602.245361,572.414978 601.570312,570.672668 
	C599.849182,565.453003 598.484009,560.856445 596.947449,556.317810 
	C590.697632,537.856323 584.395203,519.412659 578.095825,500.573730 
	C575.001099,490.782318 571.922729,481.379669 568.626831,471.312439 
	C562.399963,477.036957 556.802124,482.219604 551.164307,487.358398 
	C539.850037,497.671204 528.513855,507.960022 517.186646,518.258728 
z"/>
<path fill="#3E4E62" opacity="1.000000" stroke="none" 
	d="
M659.166809,515.897461 
	C652.570190,497.579468 646.278625,479.128662 640.013550,460.668884 
	C638.578613,456.440857 637.234924,452.181915 635.779480,447.563477 
	C640.653381,442.763641 645.657654,438.403076 650.528137,433.897797 
	C660.774292,424.419739 670.890564,414.800537 681.196411,405.388550 
	C683.803894,403.007294 684.171814,400.789764 683.064148,397.485443 
	C662.360718,335.724487 641.761047,273.928772 621.157288,212.134399 
	C609.754822,177.936020 598.413208,143.717316 586.988281,109.526451 
	C581.301941,92.509171 575.487427,75.534721 569.737915,58.538528 
	C569.215698,56.994987 568.744629,55.434166 567.968994,53.000183 
	C570.280273,53.000183 572.015747,53.000183 573.751160,53.000183 
	C594.745728,53.000175 615.742554,53.164188 636.733093,52.873215 
	C641.393433,52.808613 643.416626,54.225262 644.863892,58.605286 
	C662.067993,110.673866 679.445374,162.685287 696.807129,214.701721 
	C751.998047,380.055817 807.201782,545.405579 862.395752,710.758667 
	C862.963989,712.460938 863.467102,714.184998 864.213989,716.584656 
	C862.166565,716.749756 860.614807,716.982056 859.062866,716.983765 
	C837.401794,717.007690 815.739624,716.885986 794.080811,717.107361 
	C790.277283,717.146301 788.999146,715.678528 787.913696,712.410889 
	C761.979736,634.340576 735.951782,556.301453 709.927673,478.261078 
	C709.257568,476.251709 708.439331,474.291718 707.369934,471.460938 
	C691.057678,486.551056 675.269531,501.156250 659.166809,515.897461 
z"/>
<path fill="#747474" opacity="1.000000" stroke="none" 
	d="
M439.752808,500.089233 
	C441.158875,502.546387 442.420135,505.051941 443.295807,507.685699 
	C449.951447,527.703674 456.531677,547.746704 463.142853,568.153503 
	C410.383545,617.234680 357.625641,665.953796 304.799225,714.598694 
	C303.474426,715.818604 301.396820,716.892395 299.665466,716.899902 
	C268.671387,717.033325 237.676575,716.991943 206.681900,716.975220 
	C206.387589,716.975037 206.093369,716.801147 204.993866,716.454468 
	C283.349396,644.174622 361.389404,572.185791 439.752808,500.089233 
z"/>
<path fill="#3E4E62" opacity="1.000000" stroke="none" 
	d="
M472.742310,598.124390 
	C479.345184,616.461121 485.649353,634.932373 491.926453,653.412842 
	C493.364410,657.646301 494.709045,661.911438 496.109253,666.548889 
	C488.795593,673.415710 481.375183,679.792847 474.165436,686.400024 
	C463.879578,695.826294 453.788239,705.465027 443.497528,714.885925 
	C442.281433,715.999084 440.336548,716.905334 438.725891,716.911255 
	C407.745667,717.025024 376.764893,716.990845 345.784241,716.971008 
	C345.500793,716.970825 345.217468,716.752258 344.220764,716.342102 
	C350.524872,710.383057 356.540375,704.571045 362.697876,698.913513 
	C368.314545,693.752991 374.180817,688.862915 379.769745,683.673340 
	C395.472290,669.092773 411.010315,654.334412 426.761292,639.806763 
	C441.889008,625.854065 457.202148,612.102295 472.742310,598.124390 
z"/>
<path fill="#3E4E62" opacity="1.000000" stroke="none" 
	d="
M578.112244,500.962433 
	C584.395203,519.412659 590.697632,537.856323 596.947449,556.317810 
	C598.484009,560.856445 599.849182,565.453003 601.324097,570.414368 
	C597.940369,573.343506 594.297424,575.628357 591.153625,578.466187 
	C581.670654,587.026245 572.399536,595.820496 563.009094,604.483582 
	C558.865723,608.306030 554.633667,612.032227 550.116943,615.931030 
	C543.216187,596.747375 536.632935,577.437317 530.071960,558.119690 
	C528.950806,554.818665 527.925354,551.485107 527.012573,547.470459 
	C535.543640,539.253479 543.921753,531.736877 552.291016,524.210388 
	C560.902588,516.466064 569.505493,508.712128 578.112244,500.962433 
z"/>
<path fill="#1E3360" opacity="1.000000" stroke="none" 
	d="
M350.963348,231.084518 
	C369.449554,286.606079 387.832550,341.746826 406.337799,396.846497 
	C407.292084,399.687866 406.826752,401.295319 404.667633,403.284821 
	C325.379456,476.344788 246.150955,549.469604 166.907486,622.578186 
	C166.112823,623.311340 165.227158,623.945801 163.378006,625.438416 
	C216.660034,465.801147 269.551636,307.333588 322.443268,148.866043 
	C322.786865,148.856995 323.130463,148.847946 323.474060,148.838913 
	C332.611115,176.124359 341.748169,203.409790 350.963348,231.084518 
z"/>
<path fill="#1E3360" opacity="1.000000" stroke="none" 
	d="
M578.095825,500.573730 
	C569.505493,508.712128 560.902588,516.466064 552.291016,524.210388 
	C543.921753,531.736877 535.543640,539.253479 527.019653,547.103638 
	C523.637573,537.947754 520.405151,528.462524 517.179688,518.618042 
	C528.513855,507.960022 539.850037,497.671204 551.164307,487.358398 
	C556.802124,482.219604 562.399963,477.036957 568.626831,471.312439 
	C571.922729,481.379669 575.001099,490.782318 578.095825,500.573730 
z"/>
</svg>