<svg xmlns="http://www.w3.org/2000/svg" viewBox="0 0 926 814">
  <rect width="926" height="814" rx="40" fill="#1E3360"/>
  <path fill="#FFFFFF" opacity="1" stroke="none" d="M635.185791,446.673859 C634.908325,445.718018 634.663452,444.751312 634.348816,443.807892 C602.395874,348.013733 570.445068,252.218857 538.475830,156.430115 C527.434937,123.348518 516.378540,90.271942 505.189423,57.240417 C504.632477,55.596302 502.750488,53.195484 501.464783,53.182404 C477.482941,52.938309 453.497894,53.003162 429.097412,53.003162 C429.693817,54.927982 430.147675,56.491779 430.661530,58.035614 C435.288361,71.937065 439.920624,85.836716 444.560822,99.733719 C477.652496,198.840225 510.722076,297.954132 543.929810,397.021729 C545.242310,400.937073 544.677612,403.285095 541.619080,406.015015 C531.054749,415.444275 520.795776,425.214691 510.338959,434.765869 C504.949463,439.688599 499.387695,444.422729 493.565155,448.564026 C449.560547,316.789398 405.555908,185.014740 361.544373,53.219364 C335.753693,53.219364 309.982483,53.219364 284.396667,53.219364 C210.537964,274.513519 136.763931,495.554047 62.928833,716.777527 C64.021439,716.878296 64.674026,716.990967 65.326637,716.991211 C96.654388,717.000549 127.982491,717.059082 159.309097,716.871033 C161.444489,716.858215 163.984497,715.438782 165.638428,713.915771 C243.594116,642.129211 321.471313,570.257507 399.360992,498.399353 C409.625641,488.929535 419.908844,479.479767 430.822174,469.432739 C434.050415,480.089630 437.063293,490.035553 439.429413,500.196960 C361.389404,572.185791 283.349396,644.174622 204.993866,716.454468 C206.093369,716.801147 206.387589,716.975037 206.681900,716.975220 C237.676575,716.991943 268.671387,717.033325 299.665466,716.899902 C301.396820,716.892395 303.474426,715.818604 304.799225,714.598694 C357.625641,665.953796 410.383545,617.234680 463.707733,569.039795 C466.822113,578.688721 469.936493,588.337585 472.433807,598.262268 C457.202148,612.102295 441.889008,625.854065 426.761292,639.806763 C411.010315,654.334412 395.472290,669.092773 379.769745,683.673340 C374.180817,688.862915 368.314545,693.752991 362.697876,698.913513 C356.540375,704.571045 350.524872,710.383057 344.220764,716.342102 C345.217468,716.752258 345.500793,716.970825 345.784241,716.971008 C376.764893,716.990845 407.745667,717.025024 438.725891,716.911255 C440.336548,716.905334 442.281433,715.999084 443.497528,714.885925 C453.788239,705.465027 463.879578,695.826294 474.165436,686.400024 C481.375183,679.792847 488.795593,673.415710 496.624695,667.454041 C502.130829,683.957947 507.636963,700.461792 513.051270,716.690552 C536.604370,716.690552 559.634949,716.690552 583.003540,716.690552 C577.411865,699.938110 571.903320,683.581421 566.495178,667.191589 C560.876770,650.164429 555.355652,633.105164 550.441833,615.802185 C554.633667,612.032227 558.865723,608.306030 563.009094,604.483582 C572.399536,595.820496 581.670654,587.026245 591.153625,578.466187 C594.297424,575.628357 597.940369,573.343506 601.847412,571.322388 C602.245361,572.414978 602.669373,573.498840 603.037537,574.601379 C618.354675,620.463318 633.735535,666.304382 648.858948,712.230103 C650.177979,716.235596 651.972717,717.244446 655.872375,717.089844 C663.520081,716.786499 671.188293,717.000549 678.848022,717.000549 C694.152100,717.000549 709.456177,717.000610 725.344116,717.000610 C724.713928,714.828003 724.276428,713.096863 723.712524,711.407898 C707.609863,663.175110 691.463745,614.956787 675.397949,566.711731 C669.783569,549.851990 664.361877,532.928101 659.481445,515.761475 C675.269531,501.156250 691.057678,486.551056 707.369934,471.460938 C708.439331,474.291718 709.257568,476.251709 709.927673,478.261078 C735.951782,556.301453 761.979736,634.340576 787.913696,712.410889 C788.999146,715.678528 790.277283,717.146301 794.080811,717.107361 C815.739624,716.885986 837.401794,717.007690 859.062866,716.983765 C860.614807,716.982056 862.166565,716.749756 864.213989,716.584656 C863.467102,714.184998 862.963989,712.460938 862.395752,710.758667 C807.201782,545.405579 751.998047,380.055817 696.807129,214.701721 C679.445374,162.685287 662.067993,110.673866 644.863892,58.605286 C643.416626,54.225262 641.393433,52.808613 636.733093,52.873215 C615.742554,53.164188 594.745728,53.000175 573.751160,53.000183 C572.015747,53.000183 570.280273,53.000183 567.968994,53.000183 C568.744629,55.434166 569.215698,56.994987 569.737915,58.538528 C575.487427,75.534721 581.301941,92.509171 586.988281,109.526451 C598.413208,143.717316 609.754822,177.936020 621.157288,212.134399 C641.761047,273.928772 662.360718,335.724487 683.064148,397.485443 C684.171814,400.789764 683.803894,403.007294 681.196411,405.388550 C670.890564,414.800537 660.774292,424.419739 650.528137,433.897797 C645.657654,438.403076 640.653381,442.763641 635.185791,446.673859z"/>
  <path fill="#223E61" opacity="1" stroke="none" d="M549.791992,616.059937 C555.355652,633.105164 560.876770,650.164429 566.495178,667.191589 C571.903320,683.581421 577.411865,699.938110 583.003540,716.690552 C559.634949,716.690552 536.604370,716.690552 513.051270,716.690552 C507.636963,700.461792 502.130829,683.957947 496.360657,666.807983 C494.709045,661.911438 493.364410,657.646301 491.926453,653.412842 C485.649353,634.932373 479.345184,616.461121 473.050842,597.986511 C469.936493,588.337585 466.822113,578.688721 463.421570,568.410889 C456.531677,547.746704 449.951447,527.703674 443.295807,507.685699 C442.420135,505.051941 441.158875,502.546387 440.076172,499.981476 C437.063293,490.035553 434.050415,480.089630 430.822174,469.432739 C419.908844,479.479767 409.625641,488.929535 399.360992,498.399353 C321.471313,570.257507 243.594116,642.129211 165.638428,713.915771 C163.984497,715.438782 161.444489,716.858215 159.309097,716.871033 C127.982491,717.059082 96.654388,717.000549 65.326637,716.991211 C64.674026,716.990967 64.021439,716.878296 62.928833,716.777527 C136.763931,495.554047 210.537964,274.513519 284.396667,53.219364 C309.982483,53.219364 335.753693,53.219364 361.544373,53.219364 C405.555908,185.014740 449.560547,316.789398 493.771423,449.265747 C494.964203,452.783752 495.975739,455.591583 496.933258,458.417755 C503.690613,478.362640 510.436859,498.311279 517.179688,518.618042 C520.405151,528.462524 523.637573,537.947754 526.862793,547.799744 C527.925354,551.485107 528.950806,554.818665 530.071960,558.119690 C536.632935,577.437317 543.216187,596.747375 549.791992,616.059937z"/>
</svg>
