<svg xmlns="http://www.w3.org/2000/svg" viewBox="0 0 1200 420" role="img" aria-labelledby="title">
  <title id="title">EQT Real Estate</title>
  <g fill="none" fill-rule="evenodd">
    <g fill="#ffffff">
      <rect x="126" y="132" width="155" height="25" rx="2"/>
      <rect x="126" y="196" width="130" height="25" rx="2"/>
      <rect x="126" y="260" width="155" height="25" rx="2"/>
      <rect x="126" y="132" width="24" height="153" rx="2"/>
      <path d="M407 120c-57.4 0-104 46.6-104 104s46.6 104 104 104c21.3 0 41.2-6.4 57.7-17.4l-36.1-36.1c-6.7 2.7-14 4.2-21.6 4.2-30.2 0-54.7-24.5-54.7-54.7s24.5-54.7 54.7-54.7 54.7 24.5 54.7 54.7c0 7.6-1.5 14.9-4.2 21.6l36.1 36.1C504.6 265.2 511 245.3 511 224c0-57.4-46.6-104-104-104z"/>
      <rect x="454" y="249" width="48" height="126" rx="2" transform="rotate(-45 478 312)"/>
      <rect x="548" y="132" width="184" height="25" rx="2"/>
      <rect x="628" y="192" width="26" height="136" rx="2"/>
    </g>
    <rect x="785" y="92" width="4" height="236" rx="2" fill="#ffffff"/>
    <g fill="#ffffff" font-family="Arial, Helvetica, sans-serif" font-weight="700" font-size="64" letter-spacing="1">
      <text x="845" y="176">REAL</text>
      <text x="845" y="264">ESTATE</text>
    </g>
  </g>
</svg>
